<?xml version="1.0" encoding="UTF-8"?><svg xmlns="http://www.w3.org/2000/svg" xmlns:xlink="http://www.w3.org/1999/xlink" viewBox="0 0 986.05 430.36"><defs><style>.f{fill:#fff;}.g{opacity:.1;}.g,.h,.i{fill:#8cffaf;}.i{opacity:.15;}.j{filter:url(#d);}</style><filter id="d" filterUnits="userSpaceOnUse"><feOffset dx=".91" dy=".91"/><feGaussianBlur result="e" stdDeviation=".91"/><feFlood flood-color="#1a171b" flood-opacity=".4"/><feComposite in2="e" operator="in"/><feComposite in="SourceGraphic"/></filter></defs><g id="a"/><g id="b"><g id="c"><g><g><path class="h" d="M885.11,372.56v15.21c0,.31,.17,.6,.44,.75l1.3,.74c.27,.15,.57,.14,.81,.02,.71,2.08,1.67,4.05,2.83,5.88-.1,.11-.18,.25-.22,.41l-.34,1.49c-.07,.29,.02,.59,.23,.81l6.47,6.47c.22,.22,.54,.31,.84,.22l1.44-.39c.15-.04,.27-.12,.37-.21,.9,.57,1.83,1.09,2.79,1.55,0,.07,.01,.14,.04,.21l.45,1.46c.09,.28,.32,.5,.6,.58l4.15,1.11c.3,.08,.62,0,.84-.23l.84-.84c1.11,.21,2.25,.37,3.41,.44-.06,.28,.02,.59,.26,.81l1.12,1.04c.22,.2,.53,.28,.81,.2l14.69-3.94c.3-.08,.53-.32,.61-.62l.38-1.45c.08-.3,0-.59-.19-.79,2.33-1.57,4.42-3.49,6.18-5.67,.2,.21,.49,.33,.81,.26l1.5-.32c.29-.06,.53-.27,.63-.55l5.2-14.29c.11-.29,.05-.62-.15-.86l-.97-1.14c-.2-.24-.49-.33-.77-.3,0-.17,0-.35,0-.52,0-6.03-1.89-11.62-5.12-16.2l.27-1.2c.07-.29-.02-.59-.23-.81l-6.47-6.47c-.22-.22-.54-.31-.84-.22l-1.44,.39c-.09,.02-.16,.06-.23,.1-3.03-1.76-6.41-2.97-10.01-3.49v-.02l-.83-1.3c-.16-.25-.44-.41-.73-.41h-4.3c-.31,0-.6,.17-.75,.44l-.67,1.17c-2.43,.27-4.77,.85-6.98,1.69-.07-.28-.26-.52-.58-.62l-1.46-.47c-.28-.09-.59-.03-.82,.16l-11.65,9.78c-.24,.2-.35,.51-.3,.82l.27,1.47c.06,.31,.26,.53,.51,.64-1.02,1.69-1.87,3.49-2.52,5.39-.25-.13-.57-.13-.85,.04l-1.3,.82c-.25,.16-.41,.44-.41,.73Zm2.32,7.56c0-14.77,11.98-26.75,26.75-26.75s26.75,11.98,26.75,26.75-11.98,26.75-26.75,26.75-26.75-11.98-26.75-26.75Z"/><path class="h" d="M908.16,380.04c0,3.32,2.69,6.02,6.02,6.02s6.02-2.69,6.02-6.02-2.69-6.02-6.02-6.02-6.02,2.69-6.02,6.02Z"/></g><path class="h" d="M827.71,380.92h157.46c.49,0,.88,.39,.88,.88s-.39,.88-.88,.88h-155.7v47.69H497.99c-.49,0-.88-.39-.88-.88s.39-.88,.88-.88h329.72v-47.69Z"/><rect class="h" x="805.39" y="379.8" width="15.63" height="41.83"/><rect class="h" x="786.92" y="379.8" width="15.63" height="41.83"/><path class="h" d="M497.11,378.92h283.86v43.58H497.11v-43.58Zm282.11,1.76H498.86v40.07h280.36v-40.07Z"/></g><g><path class="f" d="M511.16,393.92h6.21c5.75,0,9.08,3.31,9.08,8s-3.38,8.09-9.17,8.09h-6.12v-16.1Zm6.28,12.14c2.67,0,4.44-1.47,4.44-4.12s-1.77-4.12-4.44-4.12h-1.82v8.23h1.82Z"/><path class="f" d="M528,403.81c0-3.63,2.6-6.51,6.28-6.51,4.3,0,6.28,3.15,6.28,6.81,0,.28,0,.6-.02,.9h-8.32c.34,1.36,1.33,2.05,2.69,2.05,1.03,0,1.86-.39,2.76-1.26l2.42,2c-1.2,1.52-2.92,2.53-5.4,2.53-3.91,0-6.67-2.6-6.67-6.51Zm8.46-1.04c-.16-1.38-.97-2.25-2.16-2.25s-1.93,.9-2.16,2.25h4.32Z"/><path class="f" d="M548.38,406.66l6.03-4.6c1.52-1.15,2.07-1.93,2.07-2.9s-.71-1.63-1.79-1.63-1.93,.62-3.2,2.07l-3.01-2.51c1.73-2.23,3.43-3.45,6.55-3.45,3.52,0,5.93,2.09,5.93,5.17,0,2.58-1.31,3.93-3.72,5.63l-2.76,1.93h6.65v3.63h-12.74v-3.36Z"/><path class="f" d="M570.46,406.89h-7.8l-.74-3.15,8.35-9.93h4.51v9.75h2.05v3.33h-2.05v3.13h-4.32v-3.13Zm0-3.31v-4.62l-3.84,4.62h3.84Z"/><path class="f" d="M584.4,406.41c0-2.58,1.96-3.91,4.88-3.91,1.15,0,2.28,.23,2.99,.48v-.21c0-1.29-.8-2.02-2.48-2.02-1.31,0-2.32,.25-3.43,.69l-.9-3.08c1.4-.57,2.9-.97,5.04-.97s3.75,.53,4.74,1.52c.94,.92,1.33,2.21,1.33,3.96v7.15h-4.32v-1.29c-.85,.94-2.02,1.56-3.66,1.56-2.37,0-4.19-1.36-4.19-3.89Zm7.91-.9v-.58c-.44-.18-1.06-.32-1.7-.32-1.26,0-2,.62-2,1.59,0,.85,.64,1.36,1.54,1.36,1.26,0,2.16-.8,2.16-2.05Z"/><path class="f" d="M604.75,406.66l6.02-4.6c1.52-1.15,2.07-1.93,2.07-2.9s-.71-1.63-1.79-1.63-1.93,.62-3.2,2.07l-3.01-2.51c1.72-2.23,3.43-3.45,6.55-3.45,3.52,0,5.93,2.09,5.93,5.17,0,2.58-1.31,3.93-3.72,5.63l-2.76,1.93h6.65v3.63h-12.74v-3.36Z"/><path class="f" d="M618.96,405.54c0-1.95,1.03-3.13,2.76-3.86-1.24-.69-2.21-1.75-2.21-3.54,0-2.58,2.46-4.48,6.07-4.48s6.07,1.91,6.07,4.53c0,1.75-.97,2.81-2.21,3.5,1.63,.76,2.76,1.84,2.76,3.89,0,2.87-2.76,4.74-6.62,4.74s-6.62-1.91-6.62-4.76Zm8.94-.44c0-1.03-.96-1.75-2.32-1.75s-2.32,.71-2.32,1.79c0,.97,.83,1.82,2.32,1.82s2.32-.85,2.32-1.86Zm-.34-6.44c0-.9-.76-1.7-1.98-1.7s-1.98,.78-1.98,1.72c0,1.01,.78,1.77,1.98,1.77s1.98-.74,1.98-1.79Z"/><path class="f" d="M639.92,403.81c0-4.05,2.53-6.51,5.47-6.51,1.89,0,2.99,.85,3.82,1.79v-5.86h4.37v16.79h-4.37v-1.66c-.85,1.04-1.93,1.93-3.79,1.93-2.94,0-5.5-2.46-5.5-6.48Zm9.36-.05c0-1.63-1.13-2.81-2.53-2.81s-2.55,1.15-2.55,2.85,1.15,2.83,2.55,2.83,2.53-1.17,2.53-2.87Z"/><path class="f" d="M655.42,403.81c0-3.63,2.6-6.51,6.28-6.51,4.3,0,6.28,3.15,6.28,6.81,0,.28,0,.6-.02,.9h-8.32c.34,1.36,1.33,2.05,2.69,2.05,1.04,0,1.86-.39,2.76-1.26l2.41,2c-1.2,1.52-2.92,2.53-5.4,2.53-3.91,0-6.67-2.6-6.67-6.51Zm8.46-1.04c-.16-1.38-.97-2.25-2.16-2.25s-1.93,.9-2.16,2.25h4.32Z"/><path class="f" d="M675.71,403.81c0-3.54,2.9-6.51,6.9-6.51s6.85,2.92,6.85,6.51-2.9,6.51-6.9,6.51-6.85-2.92-6.85-6.51Zm9.5,0c0-1.52-1.1-2.81-2.64-2.81s-2.6,1.26-2.6,2.81,1.1,2.81,2.64,2.81,2.6-1.26,2.6-2.81Z"/><path class="f" d="M691.21,405.72v-8.14h4.37v6.74c0,1.36,.71,2.09,1.77,2.09s1.82-.74,1.82-2.09v-6.74h4.37v12.44h-4.37v-1.7c-.8,1.03-1.96,1.98-3.73,1.98-2.64,0-4.23-1.75-4.23-4.58Z"/><path class="f" d="M706.64,406.16v-5.06h-1.47v-3.52h1.47v-3.15h4.37v3.15h2.9v3.52h-2.9v4.21c0,.87,.39,1.24,1.2,1.24,.58,0,1.13-.16,1.66-.41v3.43c-.78,.44-1.82,.71-3.04,.71-2.62,0-4.18-1.15-4.18-4.12Z"/><path class="f" d="M715.7,405.72v-8.14h4.37v6.74c0,1.36,.71,2.09,1.77,2.09s1.82-.74,1.82-2.09v-6.74h4.37v12.44h-4.37v-1.7c-.8,1.03-1.96,1.98-3.73,1.98-2.64,0-4.23-1.75-4.23-4.58Z"/><path class="f" d="M734.75,408.5v1.52h-4.37v-16.79h4.37v6c.85-1.03,1.91-1.93,3.77-1.93,2.97,0,5.52,2.46,5.52,6.48s-2.55,6.51-5.5,6.51c-1.89,0-2.99-.85-3.79-1.79Zm4.99-4.74c0-1.63-1.13-2.81-2.55-2.81s-2.53,1.17-2.53,2.85,1.13,2.83,2.53,2.83,2.55-1.15,2.55-2.87Z"/><path class="f" d="M745.92,397.58h4.37v2.51c.71-1.7,1.86-2.81,3.93-2.71v4.6h-.37c-2.28,0-3.56,1.31-3.56,4.19v3.86h-4.37v-12.44Z"/><path class="f" d="M755.03,403.81c0-3.54,2.9-6.51,6.9-6.51s6.85,2.92,6.85,6.51-2.9,6.51-6.9,6.51-6.85-2.92-6.85-6.51Zm9.5,0c0-1.52-1.1-2.81-2.64-2.81s-2.6,1.26-2.6,2.81,1.1,2.81,2.64,2.81,2.6-1.26,2.6-2.81Z"/></g><g><g><path class="h" d="M217.3,137.77l-1.36-.85c-.29-.18-.62-.18-.88-.04-.68-1.98-1.56-3.87-2.63-5.63,.26-.11,.47-.35,.53-.67l.28-1.54c.06-.32-.06-.65-.31-.85l-12.17-10.21c-.24-.2-.56-.26-.86-.17l-1.52,.49c-.32,.1-.53,.36-.6,.65-2.3-.89-4.75-1.49-7.29-1.77l-.7-1.22c-.16-.28-.46-.46-.79-.46h-4.49c-.31,0-.6,.16-.77,.42l-.85,1.36v.02c-3.78,.55-7.31,1.82-10.47,3.65-.07-.05-.15-.08-.25-.11l-1.51-.41c-.31-.09-.65,0-.88,.23l-6.76,6.76c-.22,.22-.31,.54-.24,.84l.29,1.26c-3.37,4.79-5.34,10.62-5.34,16.92,0,.18,0,.36,0,.54-.29-.04-.59,.06-.8,.31l-1.01,1.19c-.21,.25-.27,.59-.16,.89l5.43,14.93c.11,.29,.36,.51,.66,.58l1.57,.34c.34,.07,.65-.05,.85-.27,1.84,2.28,4.02,4.28,6.46,5.92-.19,.21-.28,.51-.2,.83l.4,1.51c.08,.31,.33,.56,.64,.64l15.35,4.11c.3,.08,.62,0,.85-.21l1.17-1.09c.25-.23,.33-.56,.27-.85,1.21-.08,2.39-.24,3.56-.46l.87,.88c.23,.23,.56,.32,.88,.24l4.34-1.16c.3-.08,.54-.31,.63-.61l.47-1.53c.02-.07,.03-.14,.04-.21,1.01-.49,1.98-1.03,2.92-1.62,.1,.1,.23,.18,.39,.22l1.51,.41c.31,.09,.65,0,.88-.23l6.76-6.76c.22-.22,.31-.54,.24-.84l-.36-1.56c-.04-.17-.12-.32-.23-.43,1.21-1.91,2.21-3.97,2.95-6.15,.25,.13,.57,.14,.85-.02l1.36-.77c.28-.16,.46-.46,.46-.79v-15.89c0-.31-.16-.6-.42-.77Zm-29.94,36.61c-15.43,0-27.94-12.51-27.94-27.94s12.51-27.94,27.94-27.94,27.94,12.51,27.94,27.94-12.51,27.94-27.94,27.94Z"/><path class="h" d="M193.65,146.36c0,3.47-2.81,6.28-6.28,6.28s-6.28-2.81-6.28-6.28,2.81-6.28,6.28-6.28,6.28,2.81,6.28,6.28Z"/></g><path class="g" d="M370.33,17.99V111.04c0,1.29,1.05,2.34,2.34,2.34h451.76c1.29,0,2.34-1.05,2.34-2.34V17.99H370.33Z"/><g><g><path class="f" d="M456.17,52.48c0-4.89,2.71-7.66,6.35-7.66s6.35,2.77,6.35,7.66-2.69,7.66-6.35,7.66-6.35-2.77-6.35-7.66Zm9.25,0c0-3.36-1.18-4.76-2.9-4.76s-2.88,1.4-2.88,4.76,1.18,4.76,2.88,4.76,2.9-1.4,2.9-4.76Z"/><path class="f" d="M424.86,74.32c0,7.16-5.52,13.72-17.6,13.72-5.95,0-12.08-1.64-16.21-4.55l3.82-7.53c3.22,2.43,7.71,3.82,12.14,3.82,4.92,0,7.95-2,7.95-5.46,0-3.22-2.37-5.22-7.95-5.22h-4.49v-6.49l8.74-9.89h-18.09v-7.89h29.74v6.37l-9.59,10.93c7.65,1.21,11.53,5.95,11.53,12.2Z"/><path class="f" d="M456.99,78.39h-6.92v8.92h-9.59v-6.53l2.37-2.39h-25.25v-6.62l20.03-26.95h10.32l-18.57,25.55h11.41v-7.95h9.29v7.95h6.92v8.01Z"/></g><g><path class="f" d="M806.05,80.08v8.07h-33.63V44.71h32.83v8.07h-22.84v9.43h20.17v7.82h-23.37l3.2,3.21v6.85h23.64Z"/><path class="f" d="M677.66,80.08v8.07h-33.63V44.71h32.83v8.07h-22.84v9.43h20.17v7.82h-23.37l3.2,3.21v6.85h23.64Z"/><path class="f" d="M562.1,52.78v11.48h20.1v8.07h-23.31l3.21,3.23v12.59h-10.05V44.71h32.83v8.07h-22.77Z"/><path class="f" d="M486.02,44.71h10.05v43.44h-10.05V44.71Z"/><path class="f" d="M543.66,44.71v43.44h-8.25l-21.66-26.37v26.37h-9.93V44.71h8.32l21.59,26.37v-26.37h9.93Z"/><path class="f" d="M588.75,65.68c0-12.91,10.05-22.46,23.77-22.46s23.77,9.49,23.77,22.46-10.11,22.46-23.77,22.46-23.77-9.56-23.77-22.46Zm37.36,0c0-8.25-5.83-13.9-13.59-13.9s-13.59,5.65-13.59,13.9,5.83,13.9,13.59,13.9,13.59-5.65,13.59-13.9Z"/><path class="f" d="M684.5,83.12l3.41-7.57c3.66,2.67,9.12,4.53,14.33,4.53,5.96,0,8.38-1.99,8.38-4.65,0-8.13-25.26-2.54-25.26-18.68,0-7.38,5.96-13.53,18.31-13.53,5.46,0,11.05,1.3,15.08,3.85l-3.1,7.63c-4.03-2.3-8.19-3.41-12.04-3.41-5.96,0-8.25,2.23-8.25,4.96,0,8,25.26,2.48,25.26,18.43,0,7.26-6.02,13.47-18.43,13.47-6.89,0-13.84-2.05-17.68-5.03Z"/><path class="f" d="M740.71,52.9h-13.9v-8.19h37.85v8.19h-17.14l3.24,3.2v32.04h-10.05V52.9Z"/></g></g><path class="h" d="M314.85,17.52L186.73,145.64l1.93,1.93L315.98,20.25c4.19-4.19,9.87-6.54,15.8-6.54h496.45v-2.73H330.65c-5.93,0-11.61,2.35-15.8,6.54Z"/><g><polygon class="h" points="576.28 18.71 588.28 18.71 591.01 15.98 579.01 15.98 576.28 18.71"/><polygon class="h" points="529.15 18.71 541.15 18.71 543.88 15.98 531.88 15.98 529.15 18.71"/><polygon class="h" points="552.72 18.71 564.72 18.71 567.44 15.98 555.44 15.98 552.72 18.71"/><polygon class="h" points="599.85 18.71 611.85 18.71 614.58 15.98 602.58 15.98 599.85 18.71"/><polygon class="h" points="623.42 18.71 635.42 18.71 638.14 15.98 626.15 15.98 623.42 18.71"/><polygon class="h" points="646.99 18.71 658.98 18.71 661.71 15.98 649.71 15.98 646.99 18.71"/><polygon class="h" points="434.88 18.71 446.88 18.71 449.61 15.98 437.61 15.98 434.88 18.71"/><polygon class="h" points="411.31 18.71 423.31 18.71 426.04 15.98 414.04 15.98 411.31 18.71"/><polygon class="h" points="458.45 18.71 470.45 18.71 473.17 15.98 461.18 15.98 458.45 18.71"/><polygon class="h" points="387.75 18.71 399.75 18.71 402.47 15.98 390.47 15.98 387.75 18.71"/><polygon class="h" points="505.58 18.71 517.58 18.71 520.31 15.98 508.31 15.98 505.58 18.71"/><polygon class="h" points="482.02 18.71 494.01 18.71 496.74 15.98 484.74 15.98 482.02 18.71"/><polygon class="h" points="811.96 18.71 823.95 18.71 826.68 15.98 814.68 15.98 811.96 18.71"/><polygon class="h" points="825.41 28.82 825.41 40.82 828.13 38.09 828.13 26.09 825.41 28.82"/><polygon class="h" points="825.41 52.39 825.41 64.39 828.13 61.66 828.13 49.66 825.41 52.39"/><path class="h" d="M372.67,111.38c-.54,0-.97-.44-.97-.97v-4.95l-2.73,2.73v2.22c0,2.04,1.66,3.7,3.7,3.7h2.38l2.73-2.73h-5.1Z"/><polygon class="h" points="788.39 18.71 800.39 18.71 803.11 15.98 791.12 15.98 788.39 18.71"/><polygon class="h" points="764.82 18.71 776.82 18.71 779.55 15.98 767.55 15.98 764.82 18.71"/><polygon class="h" points="694.12 18.71 706.12 18.71 708.84 15.98 696.85 15.98 694.12 18.71"/><polygon class="h" points="717.69 18.71 729.69 18.71 732.41 15.98 720.41 15.98 717.69 18.71"/><polygon class="h" points="670.55 18.71 682.55 18.71 685.28 15.98 673.28 15.98 670.55 18.71"/><polygon class="h" points="741.25 18.71 753.25 18.71 755.98 15.98 743.98 15.98 741.25 18.71"/><polygon class="h" points="828.13 85.23 828.13 73.23 825.41 75.96 825.41 87.95 828.13 85.23"/><polygon class="h" points="684.15 111.38 672.15 111.38 669.42 114.1 681.42 114.1 684.15 111.38"/><polygon class="h" points="589.88 111.38 577.88 111.38 575.16 114.1 587.15 114.1 589.88 111.38"/><polygon class="h" points="660.58 111.38 648.58 111.38 645.86 114.1 657.86 114.1 660.58 111.38"/><polygon class="h" points="637.02 111.38 625.02 111.38 622.29 114.1 634.29 114.1 637.02 111.38"/><polygon class="h" points="613.45 111.38 601.45 111.38 598.72 114.1 610.72 114.1 613.45 111.38"/><polygon class="h" points="707.72 111.38 695.72 111.38 692.99 114.1 704.99 114.1 707.72 111.38"/><polygon class="h" points="801.98 111.38 789.99 111.38 787.26 114.1 799.26 114.1 801.98 111.38"/><polygon class="h" points="731.28 111.38 719.29 111.38 716.56 114.1 728.56 114.1 731.28 111.38"/><path class="h" d="M828.13,108.79v-12l-2.73,2.73v10.88c0,.54-.44,.97-.97,.97h-10.88l-2.73,2.73h12l5.31-5.31Z"/><polygon class="h" points="778.42 111.38 766.42 111.38 763.69 114.1 775.69 114.1 778.42 111.38"/><polygon class="h" points="368.97 25.91 371.7 23.19 371.7 18.71 376.18 18.71 378.91 15.98 368.97 15.98 368.97 25.91"/><polygon class="h" points="754.85 111.38 742.85 111.38 740.13 114.1 752.12 114.1 754.85 111.38"/><polygon class="h" points="424.91 111.38 412.91 111.38 410.19 114.1 422.18 114.1 424.91 111.38"/><polygon class="h" points="401.34 111.38 389.35 111.38 386.62 114.1 398.62 114.1 401.34 111.38"/><polygon class="h" points="371.7 93.89 371.7 81.89 368.97 84.62 368.97 96.61 371.7 93.89"/><polygon class="h" points="566.31 111.38 554.32 111.38 551.59 114.1 563.59 114.1 566.31 111.38"/><polygon class="h" points="371.7 70.32 371.7 58.32 368.97 61.05 368.97 73.05 371.7 70.32"/><polygon class="h" points="371.7 46.75 371.7 34.75 368.97 37.48 368.97 49.48 371.7 46.75"/><polygon class="h" points="519.18 111.38 507.18 111.38 504.45 114.1 516.45 114.1 519.18 111.38"/><polygon class="h" points="542.75 111.38 530.75 111.38 528.02 114.1 540.02 114.1 542.75 111.38"/><polygon class="h" points="448.48 111.38 436.48 111.38 433.75 114.1 445.75 114.1 448.48 111.38"/><polygon class="h" points="472.05 111.38 460.05 111.38 457.32 114.1 469.32 114.1 472.05 111.38"/><polygon class="h" points="495.61 111.38 483.61 111.38 480.89 114.1 492.89 114.1 495.61 111.38"/></g><rect class="h" x="347.7" y=".03" width="480.52" height="2.73"/><rect class="h" x="348.61" y="20.95" width="2.73" height="100.88"/><path class="h" d="M340.25,2.73h-12.22c-5.93,0-11.61,2.35-15.8,6.54l-15.57,15.57-1.93-1.93,16.37-16.37c4.19-4.19,9.87-6.54,15.8-6.54h13.35V2.73Z"/></g><rect class="g" x="356.42" y="139.66" width="471.8" height="223.34"/><g><path class="f" d="M406.3,194.5c0-1.66,1.4-2.99,3.01-2.99s3.01,1.33,3.01,3.04-1.36,2.99-3.01,2.99-3.01-1.33-3.01-3.04Z"/><path class="f" d="M422.86,200.02l1.31-1.17c1.24,1.52,2.74,2.39,4.71,2.39s3.52-1.24,3.52-3.17-1.86-3.1-4.51-3.1h-1.03l-.37-1.08,5.08-5.73h-7.86v-1.63h10.28v1.33l-5.06,5.61c2.8,.23,5.31,1.59,5.31,4.58s-2.39,4.85-5.38,4.85c-2.69,0-4.69-1.17-6-2.87Z"/><path class="f" d="M445.75,198.8h-8.49l-.46-1.31,9.11-11.08h1.59v10.88h2.51v1.52h-2.51v3.82h-1.75v-3.82Zm0-1.52v-8.3l-6.76,8.3h6.76Z"/><path class="f" d="M452.35,189.83c0-1.86,1.45-3.43,3.4-3.43s3.36,1.54,3.36,3.43-1.45,3.43-3.4,3.43-3.36-1.54-3.36-3.43Zm.07,5.06h6.62v1.08h-6.62v-1.08Zm5.45-5.06c0-1.29-.92-2.32-2.16-2.32s-2.12,1.04-2.12,2.32,.92,2.32,2.16,2.32,2.12-1.03,2.12-2.32Z"/><path class="f" d="M468.68,194.57c0-4.55,3.4-8.32,8.14-8.32,2.92,0,4.62,1.08,6.23,2.6l-1.2,1.29c-1.36-1.29-2.88-2.21-5.06-2.21-3.56,0-6.23,2.9-6.23,6.65s2.69,6.65,6.23,6.65c2.21,0,3.66-.85,5.2-2.32l1.2,1.26c-1.68,1.7-3.52,2.74-6.44,2.74-4.64,0-8.07-3.66-8.07-8.32Z"/><path class="f" d="M486.11,186.18h2.02v1.95h-2.02v-1.95Zm.12,4.55h1.77v11.89h-1.77v-11.89Z"/><path class="f" d="M491.38,196.69c0-3.36,2.62-6.21,6.09-6.21,2.25,0,3.66,.94,4.76,2.12l-1.13,1.2c-.94-.99-2.05-1.75-3.66-1.75-2.42,0-4.25,2.05-4.25,4.65s1.89,4.62,4.37,4.62c1.52,0,2.64-.78,3.59-1.79l1.17,1.08c-1.2,1.33-2.62,2.3-4.85,2.3-3.47,0-6.09-2.83-6.09-6.21Z"/><path class="f" d="M505.41,185.83h1.77v16.79h-1.77v-16.79Z"/><path class="f" d="M510.56,196.69c0-3.36,2.62-6.21,6.21-6.21s6.19,2.81,6.19,6.21-2.64,6.21-6.23,6.21-6.16-2.81-6.16-6.21Zm10.58,0c0-2.55-1.91-4.65-4.42-4.65s-4.35,2.09-4.35,4.65,1.89,4.62,4.39,4.62,4.37-2.07,4.37-4.62Z"/><path class="f" d="M532.36,196.66c0-3.89,2.83-6.19,5.68-6.19,2.21,0,3.63,1.2,4.55,2.53v-7.17h1.77v16.79h-1.77v-2.39c-.97,1.43-2.37,2.64-4.55,2.64-2.85,0-5.68-2.25-5.68-6.21Zm10.3-.02c0-2.74-2.09-4.58-4.3-4.58s-4.18,1.7-4.18,4.62,1.93,4.6,4.18,4.6,4.3-1.86,4.3-4.65Z"/><path class="f" d="M553.57,201.36c1.63,0,2.78-.67,3.75-1.68l1.1,.99c-1.2,1.33-2.64,2.23-4.9,2.23-3.27,0-5.93-2.51-5.93-6.21,0-3.45,2.41-6.21,5.7-6.21,3.52,0,5.54,2.81,5.54,6.3,0,.16,0,.35-.02,.62h-9.43c.25,2.51,2.09,3.96,4.19,3.96Zm3.47-5.38c-.21-2.16-1.45-4-3.79-4-2.05,0-3.61,1.7-3.86,4h7.66Z"/><path class="f" d="M568.43,194.57c0-4.55,3.4-8.32,8.14-8.32,2.92,0,4.62,1.08,6.23,2.6l-1.2,1.29c-1.36-1.29-2.88-2.21-5.06-2.21-3.56,0-6.23,2.9-6.23,6.65s2.69,6.65,6.23,6.65c2.21,0,3.66-.85,5.2-2.32l1.2,1.26c-1.68,1.7-3.52,2.74-6.44,2.74-4.64,0-8.07-3.66-8.07-8.32Z"/><path class="f" d="M585.63,198.11v-7.38h1.77v6.94c0,2.21,1.2,3.59,3.29,3.59s3.56-1.49,3.56-3.73v-6.81h1.75v11.89h-1.75v-2.07c-.8,1.29-2.02,2.32-4.07,2.32-2.87,0-4.55-1.93-4.55-4.76Z"/><path class="f" d="M599.98,190.73h1.77v3.1c.87-1.98,2.6-3.4,4.85-3.31v1.91h-.14c-2.6,0-4.71,1.86-4.71,5.45v4.74h-1.77v-11.89Z"/><path class="f" d="M608.31,201.1l.9-1.26c1.29,.97,2.71,1.52,4.12,1.52s2.46-.74,2.46-1.93-1.4-1.66-2.97-2.09c-1.86-.53-3.93-1.17-3.93-3.4,0-2.05,1.7-3.4,4.05-3.4,1.45,0,3.06,.51,4.28,1.31l-.8,1.33c-1.1-.71-2.37-1.15-3.52-1.15-1.4,0-2.3,.74-2.3,1.77,0,1.13,1.47,1.56,3.06,2.05,1.84,.55,3.82,1.27,3.82,3.45s-1.86,3.56-4.23,3.56c-1.7,0-3.59-.67-4.92-1.75Z"/><path class="f" d="M620.02,196.69c0-3.36,2.62-6.21,6.21-6.21s6.19,2.81,6.19,6.21-2.64,6.21-6.23,6.21-6.16-2.81-6.16-6.21Zm10.58,0c0-2.55-1.91-4.65-4.42-4.65s-4.35,2.09-4.35,4.65,1.89,4.62,4.39,4.62,4.37-2.07,4.37-4.62Z"/><path class="f" d="M634.62,201.1l.9-1.26c1.29,.97,2.71,1.52,4.12,1.52s2.46-.74,2.46-1.93-1.4-1.66-2.97-2.09c-1.86-.53-3.93-1.17-3.93-3.4,0-2.05,1.7-3.4,4.05-3.4,1.45,0,3.06,.51,4.28,1.31l-.8,1.33c-1.1-.71-2.37-1.15-3.52-1.15-1.4,0-2.3,.74-2.3,1.77,0,1.13,1.47,1.56,3.06,2.05,1.84,.55,3.82,1.27,3.82,3.45s-1.86,3.56-4.23,3.56c-1.7,0-3.59-.67-4.92-1.75Z"/><path class="f" d="M659.2,201.36c1.63,0,2.78-.67,3.75-1.68l1.1,.99c-1.2,1.33-2.64,2.23-4.9,2.23-3.27,0-5.93-2.51-5.93-6.21,0-3.45,2.41-6.21,5.7-6.21,3.52,0,5.54,2.81,5.54,6.3,0,.16,0,.35-.02,.62h-9.43c.25,2.51,2.09,3.96,4.19,3.96Zm3.47-5.38c-.21-2.16-1.45-4-3.79-4-2.05,0-3.61,1.7-3.86,4h7.66Z"/><path class="f" d="M674.78,186.52h6.02c3.63,0,6.03,1.93,6.03,5.15,0,3.47-2.9,5.27-6.32,5.27h-3.91v5.68h-1.82v-16.1Zm5.79,8.76c2.67,0,4.42-1.43,4.42-3.59,0-2.3-1.72-3.5-4.32-3.5h-4.07v7.08h3.98Z"/><path class="f" d="M688.72,199.12c0-2.55,2.07-3.89,5.08-3.89,1.52,0,2.58,.21,3.63,.51v-.37c0-2.12-1.29-3.22-3.52-3.22-1.4,0-2.51,.35-3.61,.85l-.53-1.45c1.31-.6,2.58-1.01,4.32-1.01s2.99,.46,3.84,1.31,1.24,1.98,1.24,3.5v7.27h-1.75v-1.77c-.83,1.06-2.18,2.02-4.28,2.02-2.23,0-4.44-1.26-4.44-3.75Zm8.74-.87v-1.1c-.87-.25-2.02-.51-3.47-.51-2.21,0-3.47,.97-3.47,2.44s1.38,2.37,2.99,2.37c2.18,0,3.96-1.31,3.96-3.2Z"/><path class="f" d="M703.09,185.83h1.77v16.79h-1.77v-16.79Z"/><path class="f" d="M714.22,201.36c1.63,0,2.78-.67,3.75-1.68l1.1,.99c-1.2,1.33-2.64,2.23-4.9,2.23-3.27,0-5.93-2.51-5.93-6.21,0-3.45,2.41-6.21,5.7-6.21,3.52,0,5.54,2.81,5.54,6.3,0,.16,0,.35-.02,.62h-9.43c.25,2.51,2.09,3.96,4.19,3.96Zm3.47-5.38c-.21-2.16-1.45-4-3.79-4-2.05,0-3.61,1.7-3.86,4h7.66Z"/><path class="f" d="M721.61,201.1l.9-1.26c1.29,.97,2.71,1.52,4.12,1.52s2.46-.74,2.46-1.93-1.4-1.66-2.97-2.09c-1.86-.53-3.93-1.17-3.93-3.4,0-2.05,1.7-3.4,4.05-3.4,1.45,0,3.06,.51,4.28,1.31l-.8,1.33c-1.1-.71-2.37-1.15-3.52-1.15-1.4,0-2.3,.74-2.3,1.77,0,1.13,1.47,1.56,3.06,2.05,1.84,.55,3.82,1.27,3.82,3.45s-1.86,3.56-4.23,3.56c-1.7,0-3.59-.67-4.92-1.75Z"/><path class="f" d="M734.44,199.47v-7.17h-1.66v-1.56h1.66v-3.59h1.77v3.59h3.77v1.56h-3.77v6.94c0,1.45,.8,1.98,2,1.98,.6,0,1.1-.11,1.72-.41v1.52c-.62,.32-1.29,.51-2.14,.51-1.91,0-3.36-.94-3.36-3.36Z"/><path class="f" d="M743.11,190.73h1.77v3.1c.87-1.98,2.6-3.4,4.85-3.31v1.91h-.14c-2.6,0-4.71,1.86-4.71,5.45v4.74h-1.77v-11.89Z"/><path class="f" d="M750.95,199.12c0-2.55,2.07-3.89,5.08-3.89,1.52,0,2.58,.21,3.63,.51v-.37c0-2.12-1.29-3.22-3.52-3.22-1.4,0-2.51,.35-3.61,.85l-.53-1.45c1.31-.6,2.58-1.01,4.32-1.01s2.99,.46,3.84,1.31,1.24,1.98,1.24,3.5v7.27h-1.75v-1.77c-.83,1.06-2.18,2.02-4.28,2.02-2.23,0-4.44-1.26-4.44-3.75Zm8.74-.87v-1.1c-.87-.25-2.02-.51-3.47-.51-2.21,0-3.47,.97-3.47,2.44s1.38,2.37,2.99,2.37c2.18,0,3.96-1.31,3.96-3.2Z"/><path class="f" d="M764.18,201.1l.9-1.26c1.29,.97,2.71,1.52,4.12,1.52s2.46-.74,2.46-1.93-1.4-1.66-2.97-2.09c-1.86-.53-3.93-1.17-3.93-3.4,0-2.05,1.7-3.4,4.05-3.4,1.45,0,3.06,.51,4.28,1.31l-.8,1.33c-1.1-.71-2.37-1.15-3.52-1.15-1.4,0-2.3,.74-2.3,1.77,0,1.13,1.47,1.56,3.06,2.05,1.84,.55,3.82,1.27,3.82,3.45s-1.86,3.56-4.23,3.56c-1.7,0-3.59-.67-4.92-1.75Z"/><path class="f" d="M406.3,222.1c0-1.66,1.4-2.99,3.01-2.99s3.01,1.33,3.01,3.04-1.36,2.99-3.01,2.99-3.01-1.33-3.01-3.04Z"/><path class="f" d="M425.83,215.89l-3.04,.94-.44-1.47,3.93-1.36h1.33v16.21h-1.79v-14.33Z"/><path class="f" d="M431.35,222.59c0-4.9,2.48-8.74,6.69-8.74,1.93,0,3.36,.69,4.76,1.84l-1.06,1.4c-1.2-1.01-2.32-1.59-3.79-1.59-2.9,0-4.71,2.92-4.71,7.04v.07c.87-1.29,2.23-2.46,4.58-2.46,2.99,0,5.56,1.93,5.56,4.99s-2.51,5.36-5.77,5.36c-3.61,0-6.25-2.18-6.25-7.91Zm10.16,2.58c0-1.98-1.61-3.45-3.93-3.45s-4.02,1.72-4.02,3.56c0,2.05,1.7,3.61,4.07,3.61s3.89-1.63,3.89-3.73Z"/><path class="f" d="M446.16,222.49h5.98v1.08h-5.98v-1.08Zm.07-3.77c0-1.38,1.17-2.14,2.83-2.14,.78,0,1.33,.12,1.84,.25v-.11c0-1.06-.67-1.63-1.79-1.63-.71,0-1.31,.21-1.98,.51l-.35-.97c.78-.34,1.47-.57,2.44-.57,1.72,0,2.81,.87,2.81,2.67v3.98h-1.13v-.87c-.51,.62-1.24,1.01-2.21,1.01-1.22,0-2.46-.69-2.46-2.12Zm4.67-.46v-.55c-.46-.14-1.01-.25-1.75-.25s-1.72,.32-1.72,1.26c0,.74,.67,1.15,1.47,1.15,1.08,0,2-.64,2-1.61Z"/><path class="f" d="M462.97,214.12h11.57v1.68h-9.75v5.75h8.72v1.66h-8.72v7.01h-1.82v-16.1Z"/><path class="f" d="M482.66,228.96c1.63,0,2.78-.67,3.75-1.68l1.1,.99c-1.2,1.33-2.64,2.23-4.9,2.23-3.27,0-5.93-2.51-5.93-6.21,0-3.45,2.41-6.21,5.7-6.21,3.52,0,5.54,2.81,5.54,6.3,0,.16,0,.35-.02,.62h-9.43c.25,2.51,2.09,3.96,4.19,3.96Zm3.47-5.38c-.21-2.16-1.45-4-3.79-4-2.05,0-3.61,1.7-3.86,4h7.66Z"/><path class="f" d="M490.05,228.7l.9-1.26c1.29,.97,2.71,1.52,4.12,1.52s2.46-.74,2.46-1.93-1.4-1.66-2.97-2.09c-1.86-.53-3.93-1.17-3.93-3.4,0-2.05,1.7-3.4,4.05-3.4,1.45,0,3.06,.51,4.28,1.31l-.8,1.33c-1.1-.71-2.37-1.15-3.52-1.15-1.4,0-2.3,.74-2.3,1.77,0,1.13,1.47,1.56,3.06,2.05,1.84,.55,3.82,1.26,3.82,3.45s-1.86,3.56-4.23,3.56c-1.7,0-3.59-.67-4.92-1.75Z"/><path class="f" d="M502.88,227.07v-7.17h-1.66v-1.56h1.66v-3.59h1.77v3.59h3.77v1.56h-3.77v6.94c0,1.45,.8,1.98,2,1.98,.6,0,1.1-.11,1.73-.41v1.52c-.62,.32-1.29,.51-2.14,.51-1.91,0-3.36-.94-3.36-3.36Z"/><path class="f" d="M510.65,226.73c0-2.55,2.07-3.89,5.08-3.89,1.52,0,2.58,.21,3.63,.51v-.37c0-2.12-1.29-3.22-3.52-3.22-1.4,0-2.51,.35-3.61,.85l-.53-1.45c1.31-.6,2.58-1.01,4.32-1.01s2.99,.46,3.84,1.31c.83,.83,1.24,1.98,1.24,3.5v7.27h-1.75v-1.77c-.83,1.06-2.18,2.02-4.28,2.02-2.23,0-4.44-1.26-4.44-3.75Zm8.74-.87v-1.1c-.87-.25-2.02-.51-3.47-.51-2.21,0-3.47,.97-3.47,2.44s1.38,2.37,2.99,2.37c2.18,0,3.96-1.31,3.96-3.2Z"/><path class="f" d="M532.06,214.12h1.82v14.42h9.06v1.68h-10.88v-16.1Z"/><path class="f" d="M546.05,213.78h2.02v1.95h-2.02v-1.95Zm.12,4.55h1.77v11.89h-1.77v-11.89Z"/><path class="f" d="M552.05,218.33h1.77v2.07c.78-1.29,2.02-2.32,4.07-2.32,2.87,0,4.55,1.93,4.55,4.76v7.38h-1.77v-6.94c0-2.21-1.2-3.59-3.29-3.59s-3.56,1.49-3.56,3.73v6.81h-1.77v-11.89Z"/><path class="f" d="M566.03,225.71v-7.38h1.77v6.94c0,2.21,1.2,3.59,3.29,3.59s3.56-1.49,3.56-3.73v-6.81h1.75v11.89h-1.75v-2.07c-.8,1.29-2.02,2.32-4.07,2.32-2.87,0-4.55-1.93-4.55-4.76Z"/><path class="f" d="M583.97,224.17l-4.48-5.84h2.02l3.52,4.6,3.52-4.6h1.98l-4.51,5.79,4.69,6.09h-2.05l-3.68-4.85-3.7,4.85h-1.98l4.67-6.05Z"/><path class="f" d="M406.3,249.7c0-1.66,1.4-2.99,3.01-2.99s3.01,1.33,3.01,3.04-1.36,2.99-3.01,2.99-3.01-1.33-3.01-3.04Z"/><path class="f" d="M425.83,243.49l-3.04,.94-.44-1.47,3.93-1.36h1.33v16.21h-1.79v-14.33Z"/><path class="f" d="M431.35,250.19c0-4.9,2.48-8.74,6.69-8.74,1.93,0,3.36,.69,4.76,1.84l-1.06,1.4c-1.2-1.01-2.32-1.59-3.79-1.59-2.9,0-4.71,2.92-4.71,7.04v.07c.87-1.29,2.23-2.46,4.58-2.46,2.99,0,5.56,1.93,5.56,4.99s-2.51,5.36-5.77,5.36c-3.61,0-6.25-2.18-6.25-7.91Zm10.16,2.58c0-1.98-1.61-3.45-3.93-3.45s-4.02,1.72-4.02,3.56c0,2.05,1.7,3.61,4.07,3.61s3.89-1.63,3.89-3.73Z"/><path class="f" d="M446.16,250.09h5.98v1.08h-5.98v-1.08Zm.07-3.77c0-1.38,1.17-2.14,2.83-2.14,.78,0,1.33,.12,1.84,.25v-.11c0-1.06-.67-1.63-1.79-1.63-.71,0-1.31,.21-1.98,.51l-.35-.97c.78-.34,1.47-.57,2.44-.57,1.72,0,2.81,.87,2.81,2.67v3.98h-1.13v-.87c-.51,.62-1.24,1.01-2.21,1.01-1.22,0-2.46-.69-2.46-2.12Zm4.67-.46v-.55c-.46-.14-1.01-.25-1.75-.25s-1.72,.32-1.72,1.26c0,.74,.67,1.15,1.47,1.15,1.08,0,2-.64,2-1.61Z"/><path class="f" d="M462.97,241.72h1.84l5.86,8.78,5.86-8.78h1.84v16.1h-1.82v-13.04l-5.86,8.62h-.09l-5.86-8.6v13.02h-1.77v-16.1Z"/><path class="f" d="M481.74,254.32c0-2.55,2.07-3.89,5.08-3.89,1.52,0,2.58,.21,3.63,.51v-.37c0-2.12-1.29-3.22-3.52-3.22-1.4,0-2.51,.35-3.61,.85l-.53-1.45c1.31-.6,2.58-1.01,4.32-1.01s2.99,.46,3.84,1.31c.83,.83,1.24,1.98,1.24,3.5v7.27h-1.75v-1.77c-.83,1.06-2.18,2.02-4.28,2.02-2.23,0-4.44-1.26-4.44-3.75Zm8.74-.87v-1.1c-.87-.25-2.02-.51-3.47-.51-2.21,0-3.47,.97-3.47,2.44s1.38,2.37,2.99,2.37c2.18,0,3.96-1.31,3.96-3.2Z"/><path class="f" d="M495.95,245.93h1.77v3.1c.87-1.98,2.6-3.4,4.85-3.31v1.91h-.14c-2.6,0-4.71,1.86-4.71,5.45v4.74h-1.77v-11.89Z"/><path class="f" d="M503.8,254.32c0-2.55,2.07-3.89,5.08-3.89,1.52,0,2.58,.21,3.63,.51v-.37c0-2.12-1.29-3.22-3.52-3.22-1.4,0-2.51,.35-3.61,.85l-.53-1.45c1.31-.6,2.58-1.01,4.32-1.01s2.99,.46,3.84,1.31c.83,.83,1.24,1.98,1.24,3.5v7.27h-1.75v-1.77c-.83,1.06-2.18,2.02-4.28,2.02-2.23,0-4.44-1.26-4.44-3.75Zm8.74-.87v-1.1c-.87-.25-2.02-.51-3.47-.51-2.21,0-3.47,.97-3.47,2.44s1.38,2.37,2.99,2.37c2.18,0,3.96-1.31,3.96-3.2Z"/><path class="f" d="M518.63,254.67v-7.17h-1.66v-1.56h1.66v-3.59h1.77v3.59h3.77v1.56h-3.77v6.94c0,1.45,.8,1.98,2,1.98,.6,0,1.1-.11,1.73-.41v1.52c-.62,.32-1.29,.51-2.14,.51-1.91,0-3.36-.94-3.36-3.36Z"/><path class="f" d="M526.22,251.89c0-3.36,2.62-6.21,6.21-6.21s6.19,2.81,6.19,6.21-2.64,6.21-6.23,6.21-6.16-2.81-6.16-6.21Zm10.58,0c0-2.55-1.91-4.65-4.42-4.65s-4.35,2.09-4.35,4.65,1.89,4.62,4.39,4.62,4.37-2.07,4.37-4.62Z"/><path class="f" d="M541.82,245.93h1.77v2.07c.78-1.29,2.02-2.32,4.07-2.32,2.87,0,4.55,1.93,4.55,4.76v7.38h-1.77v-6.94c0-2.21-1.2-3.59-3.29-3.59s-3.56,1.49-3.56,3.73v6.81h-1.77v-11.89Z"/><path class="f" d="M555.09,254.32c0-2.55,2.07-3.89,5.08-3.89,1.52,0,2.58,.21,3.63,.51v-.37c0-2.12-1.29-3.22-3.52-3.22-1.4,0-2.51,.35-3.61,.85l-.53-1.45c1.31-.6,2.58-1.01,4.32-1.01s2.99,.46,3.84,1.31c.83,.83,1.24,1.98,1.24,3.5v7.27h-1.75v-1.77c-.83,1.06-2.18,2.02-4.28,2.02-2.23,0-4.44-1.26-4.44-3.75Zm8.74-.87v-1.1c-.87-.25-2.02-.51-3.47-.51-2.21,0-3.47,.97-3.47,2.44s1.38,2.37,2.99,2.37c2.18,0,3.96-1.31,3.96-3.2Z"/><path class="f" d="M575.51,251.86c0-3.89,2.83-6.19,5.68-6.19,2.21,0,3.63,1.2,4.55,2.53v-7.17h1.77v16.79h-1.77v-2.39c-.97,1.43-2.37,2.64-4.55,2.64-2.85,0-5.68-2.25-5.68-6.21Zm10.3-.02c0-2.74-2.09-4.58-4.3-4.58s-4.18,1.7-4.18,4.62,1.93,4.6,4.18,4.6,4.3-1.86,4.3-4.65Z"/><path class="f" d="M596.72,256.56c1.63,0,2.78-.67,3.75-1.68l1.1,.99c-1.2,1.33-2.64,2.23-4.9,2.23-3.27,0-5.93-2.51-5.93-6.21,0-3.45,2.41-6.21,5.7-6.21,3.52,0,5.54,2.81,5.54,6.3,0,.16,0,.35-.02,.62h-9.43c.25,2.51,2.09,3.96,4.19,3.96Zm3.47-5.38c-.21-2.16-1.45-4-3.79-4-2.05,0-3.61,1.7-3.86,4h7.66Z"/><path class="f" d="M612.29,241.72h6.02c3.63,0,6.03,1.93,6.03,5.15,0,3.47-2.9,5.27-6.32,5.27h-3.91v5.68h-1.82v-16.1Zm5.79,8.76c2.67,0,4.42-1.43,4.42-3.59,0-2.3-1.72-3.5-4.32-3.5h-4.07v7.08h3.98Z"/><path class="f" d="M627.35,245.93h1.77v3.1c.87-1.98,2.6-3.4,4.85-3.31v1.91h-.14c-2.6,0-4.71,1.86-4.71,5.45v4.74h-1.77v-11.89Z"/><path class="f" d="M635.43,251.89c0-3.36,2.62-6.21,6.21-6.21s6.19,2.81,6.19,6.21-2.64,6.21-6.23,6.21-6.16-2.81-6.16-6.21Zm10.58,0c0-2.55-1.91-4.65-4.42-4.65s-4.35,2.09-4.35,4.65,1.89,4.62,4.39,4.62,4.37-2.07,4.37-4.62Z"/><path class="f" d="M650.88,259.89l.8-1.38c1.36,.99,2.87,1.52,4.58,1.52,2.62,0,4.32-1.45,4.32-4.23v-1.4c-1.04,1.38-2.48,2.51-4.67,2.51-2.85,0-5.59-2.14-5.59-5.61s2.76-5.61,5.59-5.61c2.23,0,3.68,1.1,4.64,2.39v-2.14h1.77v9.82c0,1.84-.55,3.24-1.52,4.21-1.06,1.06-2.64,1.59-4.53,1.59s-3.82-.55-5.4-1.66Zm9.75-8.62c0-2.44-2.12-4.02-4.37-4.02s-4.12,1.56-4.12,4.05,1.91,4.05,4.12,4.05,4.37-1.63,4.37-4.07Z"/><path class="f" d="M666.29,245.93h1.77v3.1c.87-1.98,2.6-3.4,4.85-3.31v1.91h-.14c-2.6,0-4.71,1.86-4.71,5.45v4.74h-1.77v-11.89Z"/><path class="f" d="M674.14,254.32c0-2.55,2.07-3.89,5.08-3.89,1.52,0,2.58,.21,3.63,.51v-.37c0-2.12-1.29-3.22-3.52-3.22-1.4,0-2.51,.35-3.61,.85l-.53-1.45c1.31-.6,2.58-1.01,4.32-1.01s2.99,.46,3.84,1.31c.83,.83,1.24,1.98,1.24,3.5v7.27h-1.75v-1.77c-.83,1.06-2.18,2.02-4.28,2.02-2.23,0-4.44-1.26-4.44-3.75Zm8.74-.87v-1.1c-.87-.25-2.02-.51-3.47-.51-2.21,0-3.47,.97-3.47,2.44s1.38,2.37,2.99,2.37c2.18,0,3.96-1.31,3.96-3.2Z"/><path class="f" d="M688.35,245.93h1.77v2c.78-1.17,1.84-2.25,3.84-2.25s3.17,1.03,3.82,2.37c.85-1.31,2.12-2.37,4.19-2.37,2.74,0,4.42,1.84,4.42,4.78v7.36h-1.77v-6.94c0-2.3-1.15-3.59-3.08-3.59-1.79,0-3.29,1.33-3.29,3.68v6.85h-1.75v-6.99c0-2.23-1.17-3.54-3.06-3.54s-3.31,1.56-3.31,3.75v6.78h-1.77v-11.89Z"/><path class="f" d="M709.33,254.32c0-2.55,2.07-3.89,5.08-3.89,1.52,0,2.58,.21,3.63,.51v-.37c0-2.12-1.29-3.22-3.52-3.22-1.4,0-2.51,.35-3.61,.85l-.53-1.45c1.31-.6,2.58-1.01,4.32-1.01s2.99,.46,3.84,1.31c.83,.83,1.24,1.98,1.24,3.5v7.27h-1.75v-1.77c-.83,1.06-2.18,2.02-4.28,2.02-2.23,0-4.44-1.26-4.44-3.75Zm8.74-.87v-1.1c-.87-.25-2.02-.51-3.47-.51-2.21,0-3.47,.97-3.47,2.44s1.38,2.37,2.99,2.37c2.18,0,3.96-1.31,3.96-3.2Z"/><path class="f" d="M726,260.6l1.79-2.62c-2.9-.51-4.99-3.06-4.99-6.09,0-3.36,2.62-6.21,6.09-6.21,2.25,0,3.66,.94,4.76,2.12l-1.17,1.24c-.94-.99-2-1.79-3.61-1.79-2.42,0-4.25,2.05-4.25,4.65s1.89,4.62,4.37,4.62c1.52,0,2.69-.76,3.63-1.77l1.13,1.06c-1.15,1.26-2.46,2.18-4.51,2.3l-1.52,3.29-1.72-.78Z"/><path class="f" d="M735.78,254.32c0-2.55,2.07-3.89,5.08-3.89,1.52,0,2.58,.21,3.63,.51v-.37c0-2.12-1.29-3.22-3.52-3.22-1.4,0-2.51,.35-3.61,.85l-.53-1.45c1.31-.6,2.58-1.01,4.32-1.01s2.99,.46,3.84,1.31c.83,.83,1.24,1.98,1.24,3.5v7.27h-1.75v-1.77c-.83,1.06-2.18,2.02-4.28,2.02-2.23,0-4.44-1.26-4.44-3.75Zm8.74-.87v-1.1c-.87-.25-2.02-.51-3.47-.51-2.21,0-3.47,.97-3.47,2.44s1.38,2.37,2.99,2.37c2.18,0,3.96-1.31,3.96-3.2Zm-6.88-9.4c.46-1.72,1.08-2.41,2.18-2.41,1.04,0,2.3,.92,3.08,.92,.6,0,.85-.3,1.2-1.13l1.08,.3c-.46,1.72-1.08,2.41-2.18,2.41-1.03,0-2.3-.92-3.08-.92-.6,0-.85,.3-1.2,1.13l-1.08-.3Z"/><path class="f" d="M749.25,251.89c0-3.36,2.62-6.21,6.21-6.21s6.19,2.81,6.19,6.21-2.64,6.21-6.23,6.21-6.16-2.81-6.16-6.21Zm10.58,0c0-2.55-1.91-4.65-4.42-4.65s-4.35,2.09-4.35,4.65,1.89,4.62,4.39,4.62,4.37-2.07,4.37-4.62Z"/><path class="f" d="M406.3,277.3c0-1.66,1.4-2.99,3.01-2.99s3.01,1.33,3.01,3.04-1.36,2.99-3.01,2.99-3.01-1.33-3.01-3.04Z"/><path class="f" d="M422.91,281.05c0-1.91,1.38-3.27,3.31-3.96-1.49-.69-2.76-1.84-2.76-3.75,0-2.48,2.55-4.25,5.5-4.25s5.5,1.77,5.5,4.3c0,1.86-1.26,3.01-2.76,3.7,1.91,.71,3.31,2.02,3.31,3.98,0,2.74-2.62,4.58-6.05,4.58s-6.05-1.86-6.05-4.6Zm10.26-.05c0-1.79-1.86-3.06-4.21-3.06s-4.21,1.26-4.21,3.1c0,1.63,1.56,3.01,4.21,3.01s4.21-1.38,4.21-3.06Zm-.53-7.54c0-1.59-1.59-2.78-3.68-2.78s-3.68,1.17-3.68,2.83c0,1.75,1.63,2.94,3.68,2.94s3.68-1.2,3.68-2.99Z"/><path class="f" d="M437.31,272.63c0-1.86,1.45-3.43,3.4-3.43s3.36,1.54,3.36,3.43-1.45,3.43-3.4,3.43-3.36-1.54-3.36-3.43Zm.07,5.06h6.62v1.08h-6.62v-1.08Zm5.45-5.06c0-1.29-.92-2.32-2.16-2.32s-2.12,1.04-2.12,2.32,.92,2.32,2.16,2.32,2.12-1.03,2.12-2.32Z"/><path class="f" d="M454.35,269.32h11.57v1.68h-9.75v5.75h8.72v1.66h-8.72v7.01h-1.82v-16.1Z"/><path class="f" d="M469.6,269.32h1.82v16.1h-1.82v-16.1Z"/><path class="f" d="M476.13,269.32h6.02c3.63,0,6.03,1.93,6.03,5.15,0,3.47-2.9,5.27-6.32,5.27h-3.91v5.68h-1.82v-16.1Zm5.79,8.76c2.67,0,4.42-1.43,4.42-3.59,0-2.3-1.72-3.5-4.32-3.5h-4.07v7.08h3.98Z"/><path class="f" d="M491.49,269.32h6.02c3.63,0,6.03,1.93,6.03,5.15,0,3.47-2.9,5.27-6.32,5.27h-3.91v5.68h-1.82v-16.1Zm5.79,8.76c2.67,0,4.42-1.43,4.42-3.59,0-2.3-1.72-3.5-4.32-3.5h-4.07v7.08h3.98Z"/><path class="f" d="M506.86,269.32h11.64v1.66h-9.82v5.5h8.78v1.66h-8.78v5.63h9.93v1.66h-11.75v-16.1Z"/><path class="f" d="M526.52,271h-5.4v-1.68h12.65v1.68h-5.4v14.42h-1.84v-14.42Z"/><path class="f" d="M537.17,269.32h11.64v1.66h-9.82v5.5h8.78v1.66h-8.78v5.63h9.93v1.66h-11.75v-16.1Z"/><path class="f" d="M551.87,277.37c0-4.55,3.4-8.32,8.14-8.32,2.92,0,4.62,1.08,6.23,2.6l-1.2,1.29c-1.36-1.29-2.88-2.21-5.06-2.21-3.56,0-6.23,2.9-6.23,6.65s2.69,6.65,6.23,6.65c2.21,0,3.66-.85,5.2-2.32l1.2,1.26c-1.68,1.7-3.52,2.74-6.44,2.74-4.64,0-8.07-3.66-8.07-8.32Z"/><path class="f" d="M575.67,277.58h6.39v1.86h-6.39v-1.86Z"/><path class="f" d="M592.03,277.37c0-4.55,3.4-8.32,8.14-8.32,2.92,0,4.62,1.08,6.23,2.6l-1.2,1.29c-1.36-1.29-2.88-2.21-5.06-2.21-3.56,0-6.23,2.9-6.23,6.65s2.69,6.65,6.23,6.65c2.21,0,3.66-.85,5.2-2.32l1.2,1.26c-1.68,1.7-3.52,2.74-6.44,2.74-4.64,0-8.07-3.66-8.07-8.32Z"/><path class="f" d="M609.46,268.98h2.02v1.95h-2.02v-1.95Zm.12,4.55h1.77v11.89h-1.77v-11.89Z"/><path class="f" d="M614.73,279.49c0-3.36,2.62-6.21,6.09-6.21,2.25,0,3.66,.94,4.76,2.12l-1.13,1.2c-.94-.99-2.05-1.75-3.66-1.75-2.42,0-4.25,2.05-4.25,4.65s1.89,4.62,4.37,4.62c1.52,0,2.64-.78,3.59-1.79l1.17,1.08c-1.2,1.33-2.62,2.3-4.85,2.3-3.47,0-6.09-2.83-6.09-6.21Z"/><path class="f" d="M628.76,268.63h1.77v16.79h-1.77v-16.79Z"/><path class="f" d="M633.91,279.49c0-3.36,2.62-6.21,6.21-6.21s6.19,2.81,6.19,6.21-2.64,6.21-6.23,6.21-6.16-2.81-6.16-6.21Zm10.58,0c0-2.55-1.91-4.65-4.42-4.65s-4.35,2.09-4.35,4.65,1.89,4.62,4.39,4.62,4.37-2.07,4.37-4.62Z"/><path class="f" d="M655.71,279.46c0-3.89,2.83-6.19,5.68-6.19,2.21,0,3.63,1.2,4.55,2.53v-7.17h1.77v16.79h-1.77v-2.39c-.97,1.43-2.37,2.64-4.55,2.64-2.85,0-5.68-2.25-5.68-6.21Zm10.3-.02c0-2.74-2.09-4.58-4.3-4.58s-4.18,1.7-4.18,4.62,1.93,4.6,4.18,4.6,4.3-1.86,4.3-4.65Z"/><path class="f" d="M676.92,284.16c1.63,0,2.78-.67,3.75-1.68l1.1,.99c-1.2,1.33-2.64,2.23-4.9,2.23-3.27,0-5.93-2.51-5.93-6.21,0-3.45,2.41-6.21,5.7-6.21,3.52,0,5.54,2.81,5.54,6.3,0,.16,0,.35-.02,.62h-9.43c.25,2.51,2.09,3.96,4.19,3.96Zm3.47-5.38c-.21-2.16-1.45-4-3.79-4-2.05,0-3.61,1.7-3.86,4h7.66Z"/><path class="f" d="M691.78,277.37c0-4.55,3.4-8.32,8.14-8.32,2.92,0,4.62,1.08,6.23,2.6l-1.2,1.29c-1.36-1.29-2.88-2.21-5.06-2.21-3.56,0-6.23,2.9-6.23,6.65s2.69,6.65,6.23,6.65c2.21,0,3.66-.85,5.2-2.32l1.2,1.26c-1.68,1.7-3.52,2.74-6.44,2.74-4.64,0-8.07-3.66-8.07-8.32Z"/><path class="f" d="M708.98,280.91v-7.38h1.77v6.94c0,2.21,1.2,3.59,3.29,3.59s3.56-1.49,3.56-3.73v-6.81h1.75v11.89h-1.75v-2.07c-.8,1.29-2.02,2.32-4.07,2.32-2.87,0-4.55-1.93-4.55-4.76Z"/><path class="f" d="M723.33,273.53h1.77v3.1c.87-1.98,2.6-3.4,4.85-3.31v1.91h-.14c-2.6,0-4.71,1.86-4.71,5.45v4.74h-1.77v-11.89Z"/><path class="f" d="M731.66,283.9l.9-1.26c1.29,.97,2.71,1.52,4.12,1.52s2.46-.74,2.46-1.93-1.4-1.66-2.97-2.09c-1.86-.53-3.93-1.17-3.93-3.4,0-2.05,1.7-3.4,4.05-3.4,1.45,0,3.06,.51,4.28,1.31l-.8,1.33c-1.1-.71-2.37-1.15-3.52-1.15-1.4,0-2.3,.74-2.3,1.77,0,1.13,1.47,1.56,3.06,2.05,1.84,.55,3.82,1.27,3.82,3.45s-1.86,3.56-4.23,3.56c-1.7,0-3.59-.67-4.92-1.75Z"/><path class="f" d="M743.37,279.49c0-3.36,2.62-6.21,6.21-6.21s6.19,2.81,6.19,6.21-2.64,6.21-6.23,6.21-6.16-2.81-6.16-6.21Zm10.58,0c0-2.55-1.91-4.65-4.42-4.65s-4.35,2.09-4.35,4.65,1.89,4.62,4.39,4.62,4.37-2.07,4.37-4.62Z"/><path class="f" d="M757.97,283.9l.9-1.26c1.29,.97,2.71,1.52,4.12,1.52s2.46-.74,2.46-1.93-1.4-1.66-2.97-2.09c-1.86-.53-3.93-1.17-3.93-3.4,0-2.05,1.7-3.4,4.05-3.4,1.45,0,3.06,.51,4.28,1.31l-.8,1.33c-1.1-.71-2.37-1.15-3.52-1.15-1.4,0-2.3,.74-2.3,1.77,0,1.13,1.47,1.56,3.06,2.05,1.84,.55,3.82,1.27,3.82,3.45s-1.86,3.56-4.23,3.56c-1.7,0-3.59-.67-4.92-1.75Z"/><path class="f" d="M428.52,311.76c1.63,0,2.78-.67,3.75-1.68l1.1,.99c-1.2,1.33-2.64,2.23-4.9,2.23-3.27,0-5.93-2.51-5.93-6.21,0-3.45,2.41-6.21,5.7-6.21,3.52,0,5.54,2.81,5.54,6.3,0,.16,0,.35-.02,.62h-9.43c.25,2.51,2.09,3.96,4.19,3.96Zm3.47-5.38c-.21-2.16-1.45-4-3.79-4-2.05,0-3.61,1.7-3.86,4h7.66Z"/><path class="f" d="M444.09,296.92h6.02c3.63,0,6.03,1.93,6.03,5.15,0,3.47-2.9,5.27-6.32,5.27h-3.91v5.68h-1.82v-16.1Zm5.79,8.76c2.67,0,4.42-1.43,4.42-3.59,0-2.3-1.72-3.5-4.32-3.5h-4.07v7.08h3.98Z"/><path class="f" d="M458.03,309.52c0-2.55,2.07-3.89,5.08-3.89,1.52,0,2.58,.21,3.63,.51v-.37c0-2.12-1.29-3.22-3.52-3.22-1.4,0-2.51,.35-3.61,.85l-.53-1.45c1.31-.6,2.58-1.01,4.32-1.01s2.99,.46,3.84,1.31c.83,.83,1.24,1.98,1.24,3.5v7.27h-1.75v-1.77c-.83,1.06-2.18,2.02-4.28,2.02-2.23,0-4.44-1.26-4.44-3.75Zm8.74-.87v-1.1c-.87-.25-2.02-.51-3.47-.51-2.21,0-3.47,.97-3.47,2.44s1.38,2.37,2.99,2.37c2.18,0,3.96-1.31,3.96-3.2Z"/><path class="f" d="M472.4,296.23h1.77v16.79h-1.77v-16.79Z"/><path class="f" d="M483.53,311.76c1.63,0,2.78-.67,3.75-1.68l1.1,.99c-1.2,1.33-2.64,2.23-4.9,2.23-3.27,0-5.93-2.51-5.93-6.21,0-3.45,2.41-6.21,5.7-6.21,3.52,0,5.54,2.81,5.54,6.3,0,.16,0,.35-.02,.62h-9.43c.25,2.51,2.09,3.96,4.19,3.96Zm3.47-5.38c-.21-2.16-1.45-4-3.79-4-2.05,0-3.61,1.7-3.86,4h7.66Z"/><path class="f" d="M490.92,311.5l.9-1.26c1.29,.97,2.71,1.52,4.12,1.52s2.46-.74,2.46-1.93-1.4-1.66-2.97-2.09c-1.86-.53-3.93-1.17-3.93-3.4,0-2.05,1.7-3.4,4.05-3.4,1.45,0,3.06,.51,4.28,1.31l-.8,1.33c-1.1-.71-2.37-1.15-3.52-1.15-1.4,0-2.3,.74-2.3,1.77,0,1.13,1.47,1.56,3.06,2.05,1.84,.55,3.82,1.26,3.82,3.45s-1.86,3.56-4.23,3.56c-1.7,0-3.59-.67-4.92-1.75Z"/><path class="f" d="M503.75,309.87v-7.17h-1.66v-1.56h1.66v-3.59h1.77v3.59h3.77v1.56h-3.77v6.94c0,1.45,.8,1.98,2,1.98,.6,0,1.1-.11,1.72-.41v1.52c-.62,.32-1.29,.51-2.14,.51-1.91,0-3.36-.94-3.36-3.36Z"/><path class="f" d="M512.42,301.13h1.77v3.1c.87-1.98,2.6-3.4,4.85-3.31v1.91h-.14c-2.6,0-4.71,1.86-4.71,5.45v4.74h-1.77v-11.89Z"/><path class="f" d="M520.27,309.52c0-2.55,2.07-3.89,5.08-3.89,1.52,0,2.58,.21,3.63,.51v-.37c0-2.12-1.29-3.22-3.52-3.22-1.4,0-2.51,.35-3.61,.85l-.53-1.45c1.31-.6,2.58-1.01,4.32-1.01s2.99,.46,3.84,1.31c.83,.83,1.24,1.98,1.24,3.5v7.27h-1.75v-1.77c-.83,1.06-2.18,2.02-4.28,2.02-2.23,0-4.44-1.26-4.44-3.75Zm8.74-.87v-1.1c-.87-.25-2.02-.51-3.47-.51-2.21,0-3.47,.97-3.47,2.44s1.38,2.37,2.99,2.37c2.18,0,3.96-1.31,3.96-3.2Z"/><path class="f" d="M533.49,311.5l.9-1.26c1.29,.97,2.71,1.52,4.12,1.52s2.46-.74,2.46-1.93-1.4-1.66-2.97-2.09c-1.86-.53-3.93-1.17-3.93-3.4,0-2.05,1.7-3.4,4.05-3.4,1.45,0,3.06,.51,4.28,1.31l-.8,1.33c-1.1-.71-2.37-1.15-3.52-1.15-1.4,0-2.3,.74-2.3,1.77,0,1.13,1.47,1.56,3.06,2.05,1.84,.55,3.82,1.26,3.82,3.45s-1.86,3.56-4.23,3.56c-1.7,0-3.59-.67-4.92-1.75Z"/><path class="f" d="M552.83,301.13h1.77v2.39c.97-1.43,2.37-2.64,4.55-2.64,2.85,0,5.68,2.25,5.68,6.21s-2.8,6.19-5.68,6.19c-2.21,0-3.63-1.2-4.55-2.53v5.96h-1.77v-15.57Zm10.19,5.93c0-2.81-1.93-4.6-4.18-4.6s-4.3,1.86-4.3,4.62,2.09,4.6,4.3,4.6,4.18-1.7,4.18-4.62Z"/><path class="f" d="M567.21,309.52c0-2.55,2.07-3.89,5.08-3.89,1.52,0,2.58,.21,3.63,.51v-.37c0-2.12-1.29-3.22-3.52-3.22-1.4,0-2.51,.35-3.61,.85l-.53-1.45c1.31-.6,2.58-1.01,4.32-1.01s2.99,.46,3.84,1.31c.83,.83,1.24,1.98,1.24,3.5v7.27h-1.75v-1.77c-.83,1.06-2.18,2.02-4.28,2.02-2.23,0-4.44-1.26-4.44-3.75Zm8.74-.87v-1.1c-.87-.25-2.02-.51-3.47-.51-2.21,0-3.47,.97-3.47,2.44s1.38,2.37,2.99,2.37c2.18,0,3.96-1.31,3.96-3.2Z"/><path class="f" d="M581.42,301.13h1.77v3.1c.87-1.98,2.6-3.4,4.85-3.31v1.91h-.14c-2.6,0-4.71,1.86-4.71,5.45v4.74h-1.77v-11.89Z"/><path class="f" d="M589.27,309.52c0-2.55,2.07-3.89,5.08-3.89,1.52,0,2.58,.21,3.63,.51v-.37c0-2.12-1.29-3.22-3.52-3.22-1.4,0-2.51,.35-3.61,.85l-.53-1.45c1.31-.6,2.58-1.01,4.32-1.01s2.99,.46,3.84,1.31c.83,.83,1.24,1.98,1.24,3.5v7.27h-1.75v-1.77c-.83,1.06-2.18,2.02-4.28,2.02-2.23,0-4.44-1.26-4.44-3.75Zm8.74-.87v-1.1c-.87-.25-2.02-.51-3.47-.51-2.21,0-3.47,.97-3.47,2.44s1.38,2.37,2.99,2.37c2.18,0,3.96-1.31,3.96-3.2Z"/><path class="f" d="M609.48,309.52c0-2.55,2.07-3.89,5.08-3.89,1.52,0,2.58,.21,3.63,.51v-.37c0-2.12-1.29-3.22-3.52-3.22-1.4,0-2.51,.35-3.61,.85l-.53-1.45c1.31-.6,2.58-1.01,4.32-1.01s2.99,.46,3.84,1.31c.83,.83,1.24,1.98,1.24,3.5v7.27h-1.75v-1.77c-.83,1.06-2.18,2.02-4.28,2.02-2.23,0-4.44-1.26-4.44-3.75Zm8.74-.87v-1.1c-.87-.25-2.02-.51-3.47-.51-2.21,0-3.47,.97-3.47,2.44s1.38,2.37,2.99,2.37c2.18,0,3.96-1.31,3.96-3.2Z"/><path class="f" d="M622.71,311.5l.9-1.26c1.29,.97,2.71,1.52,4.12,1.52s2.46-.74,2.46-1.93-1.4-1.66-2.97-2.09c-1.86-.53-3.93-1.17-3.93-3.4,0-2.05,1.7-3.4,4.05-3.4,1.45,0,3.06,.51,4.28,1.31l-.8,1.33c-1.1-.71-2.37-1.15-3.52-1.15-1.4,0-2.3,.74-2.3,1.77,0,1.13,1.47,1.56,3.06,2.05,1.84,.55,3.82,1.26,3.82,3.45s-1.86,3.56-4.23,3.56c-1.7,0-3.59-.67-4.92-1.75Z"/><path class="f" d="M642.35,296.92h11.64v1.66h-9.82v5.5h8.78v1.66h-8.78v5.63h9.93v1.66h-11.75v-16.1Z"/><path class="f" d="M662.01,298.6h-5.4v-1.68h12.65v1.68h-5.4v14.42h-1.84v-14.42Z"/><path class="f" d="M672.66,296.92h11.64v1.66h-9.82v5.5h8.78v1.66h-8.78v5.63h9.93v1.66h-11.75v-16.1Z"/><path class="f" d="M687.36,304.97c0-4.55,3.4-8.32,8.14-8.32,2.92,0,4.62,1.08,6.23,2.6l-1.2,1.29c-1.36-1.29-2.88-2.21-5.06-2.21-3.56,0-6.23,2.9-6.23,6.65s2.69,6.65,6.23,6.65c2.21,0,3.66-.85,5.2-2.32l1.2,1.26c-1.68,1.7-3.52,2.74-6.44,2.74-4.64,0-8.07-3.66-8.07-8.32Z"/><path class="f" d="M703.76,311.5l.9-1.26c1.29,.97,2.71,1.52,4.12,1.52s2.46-.74,2.46-1.93-1.4-1.66-2.97-2.09c-1.86-.53-3.93-1.17-3.93-3.4,0-2.05,1.7-3.4,4.05-3.4,1.45,0,3.06,.51,4.28,1.31l-.8,1.33c-1.1-.71-2.37-1.15-3.52-1.15-1.4,0-2.3,.74-2.3,1.77,0,1.13,1.47,1.56,3.06,2.05,1.84,.55,3.82,1.26,3.82,3.45s-1.86,3.56-4.23,3.56c-1.7,0-3.59-.67-4.92-1.75Z"/></g><g><g><path class="h" d="M381.59,182.13c-.36,0-.65-.29-.65-.65v-19.25h20.12c.36,0,.65,.29,.65,.65s-.29,.65-.65,.65h-18.82v17.95c0,.36-.29,.65-.65,.65Z"/><path class="h" d="M400.19,340.42h-19.25v-20.12c0-.36,.29-.65,.65-.65s.65,.29,.65,.65v18.82h17.95c.36,0,.65,.29,.65,.65s-.29,.65-.65,.65Z"/></g><g><path class="h" d="M803.05,320.53c.36,0,.65,.29,.65,.65v19.25h-20.12c-.36,0-.65-.29-.65-.65s.29-.65,.65-.65h18.82v-17.95c0-.36,.29-.65,.65-.65Z"/><path class="h" d="M784.45,162.24h19.25v20.12c0,.36-.29,.65-.65,.65s-.65-.29-.65-.65v-18.82h-17.95c-.36,0-.65-.29-.65-.65s.29-.65,.65-.65Z"/></g></g><g><g><path class="h" d="M263.15,160.04l-8.15-8.15c-2.79-2.79-6.49-4.32-10.43-4.32H31.32c-3.94,0-7.65,1.53-10.43,4.32l-7.41,7.41c-2.79,2.79-4.32,6.49-4.32,10.43v171.09c0,3.94,1.53,7.65,4.32,10.43l7.41,7.41c2.79,2.79,6.49,4.32,10.43,4.32H244.56c3.94,0,7.65-1.53,10.43-4.32l8.15-8.15c2.79-2.79,4.32-6.49,4.32-10.43V170.48c0-3.94-1.53-7.65-4.32-10.43Zm3.32,42.19v137.86c0,3.67-1.43,7.13-4.03,9.72l-8.15,8.15c-2.6,2.6-6.05,4.03-9.72,4.03H31.32c-3.67,0-7.13-1.43-9.72-4.03l-7.41-7.41c-2.6-2.6-4.03-6.05-4.03-9.72V169.74c0-3.67,1.43-7.13,4.03-9.72l7.41-7.41c2.6-2.6,6.05-4.03,9.72-4.03H244.56c3.67,0,7.13,1.43,9.72,4.03l8.15,8.15c2.6,2.6,4.03,6.05,4.03,9.72v31.76Z"/><path class="h" d="M248.27,159.41c-2.57-2.57-5.99-3.99-9.63-3.99H37.29c-3.64,0-7.05,1.42-9.63,3.99l-6.95,6.95c-2.57,2.57-3.99,5.99-3.99,9.63v158.6c0,3.64,1.42,7.05,3.99,9.63l6.95,6.95c2.57,2.57,5.99,3.99,9.63,3.99H238.64c3.64,0,7.05-1.42,9.63-3.99l7.64-7.64c2.57-2.57,3.99-5.99,3.99-9.63V176.68c0-3.64-1.42-7.05-3.99-9.63l-7.64-7.64Zm11.13,40.37v134.11c0,3.5-1.36,6.79-3.84,9.27l-7.64,7.64c-2.48,2.48-5.77,3.84-9.27,3.84H37.29c-3.5,0-6.79-1.36-9.27-3.84l-6.95-6.95c-2.48-2.48-3.84-5.77-3.84-9.27V175.98c0-3.5,1.36-6.79,3.84-9.27l6.95-6.95c2.48-2.48,5.77-3.84,9.27-3.84H238.64c3.5,0,6.79,1.36,9.27,3.84l7.64,7.64c2.48,2.48,3.84,5.77,3.84,9.27v23.1Z"/></g><path class="h" d="M3.34,261.66c-2.14-2.14-3.34-5.04-3.34-8.06v-63.39c0-3.02,1.2-5.92,3.34-8.06l6.21-6.21-.25,91.67-5.95-5.95Z"/><path class="h" d="M276.19,288.14c-.16-2.79-1.32-5.44-3.31-7.43l-5.95-5.95-.02,13.38h-.02v11.36h.01l.03,23.45,5.95-5.95c2.14-2.14,3.34-5.04,3.34-8.06v-20.79h-.03Z"/><path class="i" d="M255.23,167.03l-7.64-7.51c-2.51-2.46-5.9-3.84-9.45-3.84H36.79c-3.54,0-6.94,1.38-9.45,3.84l-6.95,6.82c-2.51,2.46-3.91,5.8-3.91,9.28v158.75c0,3.48,1.41,6.82,3.91,9.28l6.95,6.82c2.51,2.46,5.9,3.84,9.45,3.84H238.14c3.54,0,6.94-1.38,9.45-3.84l7.64-7.51c2.51-2.46,3.91-5.8,3.91-9.28V176.31c0-3.48-1.41-6.82-3.91-9.28Z"/><g><g class="j"><g><g><path class="f" d="M88.96,251.2v-46.73h33.46v8.45h-24.68v12.7h23.35v8.11h-23.35v17.46h-8.78Z"/><path class="f" d="M129.2,251.2l.15-46.96h8.71l-.15,46.96h-8.71Z"/><path class="f" d="M165.36,234.87h-10.81v16.33h-8.78v-46.83c7.32,0,12.28-.07,19.59-.07,22.75,0,22.81,30.57,0,30.57Zm-10.81-8.05h10.81c11.24,0,11.17-14.14,0-14.14h-10.81v14.14Z"/><path class="f" d="M208.32,234.87h-10.81v16.33h-8.78v-46.83c7.32,0,12.28-.07,19.59-.07,22.75,0,22.81,30.57,0,30.57Zm-10.81-8.05h10.81c11.24,0,11.17-14.14,0-14.14h-10.81v14.14Z"/></g><g><path class="f" d="M62.45,251.17v-7.46c-.29,0-.58-.01-.87-.03v7.46c.29,.01,.57,.02,.87,.02Z"/><path class="f" d="M63.97,243.67c-.27,.02-.56,.03-.85,.04v7.46c.28,0,.57-.01,.85-.02v-7.47Z"/><g><path class="f" d="M60.91,243.62c-5.84-.6-8.73-4.14-8.79-10.56h9.21v-7.39h-9.26v-3.3h15.57v-7.39h-18.63v.02h-4.71v18.18h0c.13,11.01,6.92,17.25,16.61,17.94v-7.49Z"/><path class="f" d="M44.3,204.51v7.34h28.83v20.64c0,5.74-2.76,10.34-8.62,11.14v7.46c10.38-.82,16.51-8.41,16.51-18.61v-27.98H44.3Z"/></g></g><g><path class="f" d="M220.24,247.87c-.26,0-.75,.12-.75,.5,0,.37,.48,.47,.75,.47,.26,0,.74-.1,.74-.47,0-.37-.49-.49-.75-.49Z"/><path class="f" d="M220.95,247.29c0-.36-.44-.46-.71-.46-.27,0-.71,.1-.71,.47,0,.34,.44,.44,.71,.44s.71-.1,.71-.44Z"/><path class="f" d="M211.07,246.91h-.58v1.91h.59c.66,0,.96-.5,.95-.98-.01-.47-.32-.93-.96-.93Z"/><path class="f" d="M217.93,246.86c-.32,0-.7,.12-.7,.53,0,.4,.38,.53,.7,.53,.32,0,.7-.16,.71-.53,0-.4-.39-.53-.7-.53Z"/><path class="f" d="M204.34,246.93h-.58v1.91h.58c.66,0,.96-.5,.95-.98,0-.46-.31-.93-.96-.92Z"/><path class="f" d="M202.02,244.19v7.01h23.39v-7.02h-23.39Zm2.33,4.82h-.75v-2.23h.74c.75,0,1.12,.54,1.13,1.09,.01,.57-.35,1.15-1.12,1.15Zm3.24,0h-1.57v-2.23h1.53v.16h-1.37v.87h1.31v.15h-1.3v.88h1.41v.16Zm1.37,.03c-.35,0-.74-.14-.91-.48l.15-.08c.14,.27,.49,.4,.76,.4,.27,0,.7-.08,.7-.47,0-.34-.37-.41-.73-.47-.41-.08-.82-.16-.82-.57-.01-.47,.48-.62,.84-.62,.32,0,.59,.05,.81,.38l-.14,.09c-.16-.26-.42-.3-.67-.3-.26,0-.67,.1-.67,.45,0,.29,.3,.35,.68,.42,.43,.08,.87,.16,.87,.64,0,.5-.51,.63-.88,.63Zm2.13-.04c-.25,0-.5,0-.75,0v-2.23c.24,0,.49,0,.74,0,.75,0,1.12,.54,1.13,1.09,.01,.57-.34,1.14-1.12,1.15Zm1.66,0v-2.24h1.53v.16h-1.36v.87h1.3v.15h-1.3v.88h1.4v.16h-1.57Zm2.94,0v-.15h.37v-1.93h-.38v-.15h.54v2.08h.38v.15h-.92Zm2.28,.02c-.44,0-.82-.19-.85-.56h.17c.02,.27,.31,.41,.67,.41,.34,0,.68-.16,.68-.47v-.61c-.18,.25-.44,.31-.71,.32-.42,0-.87-.19-.87-.69,0-.51,.45-.69,.87-.69,.42,0,.88,.19,.88,.69v.98c0,.42-.42,.62-.84,.62Zm2.29,.02c-.41,0-.92-.15-.92-.63,0-.31,.24-.51,.5-.57-.26-.08-.46-.24-.46-.52,0-.47,.49-.61,.88-.62,.38,0,.88,.14,.88,.61,0,.28-.22,.45-.48,.52,.26,.05,.52,.26,.52,.56,0,.48-.5,.64-.91,.64Zm1.82-.05h-.19l1.19-2.08h-1.44v-.16h1.62l.02,.14-1.2,2.1Z"/></g><path class="f" d="M231.33,207.25c0,1.6-1.26,2.85-2.89,2.85s-2.9-1.26-2.9-2.85,1.29-2.82,2.9-2.82,2.89,1.26,2.89,2.82Zm-5.07,0c0,1.25,.93,2.25,2.2,2.25s2.15-1,2.15-2.24-.91-2.27-2.17-2.27-2.18,1.01-2.18,2.25Zm1.74,1.48h-.65v-2.82c.26-.05,.62-.09,1.08-.09,.53,0,.77,.09,.98,.21,.15,.12,.27,.34,.27,.62,0,.31-.24,.55-.58,.65v.03c.27,.1,.43,.31,.52,.69,.09,.43,.14,.6,.21,.7h-.71c-.09-.1-.14-.36-.22-.69-.05-.31-.22-.45-.58-.45h-.31v1.13Zm.02-1.6h.31c.36,0,.65-.12,.65-.41,0-.26-.19-.43-.6-.43-.17,0-.29,.02-.36,.03v.81Z"/><g><path class="f" d="M44.33,264.92v-7.27h5.23v1.32h-3.86v1.99h3.65v1.27h-3.65v2.69h-1.37Z"/><path class="f" d="M56.94,263.55h-3.81l-.62,1.37h-1.49l3.27-7.28h1.5l3.27,7.28h-1.5l-.61-1.37Zm-1.9-4.38l-1.35,3.1h2.7l-1.35-3.1Z"/><path class="f" d="M66.92,264.01c-.75,.74-1.72,1.08-2.77,1.08-2.7,0-3.85-1.86-3.86-3.75-.01-1.9,1.23-3.84,3.86-3.84,.99,0,1.92,.37,2.67,1.11l-.91,.88c-.48-.47-1.12-.69-1.76-.69-1.76,0-2.52,1.31-2.51,2.53,.01,1.21,.71,2.46,2.51,2.46,.63,0,1.35-.26,1.83-.74l.94,.95Z"/><path class="f" d="M75.24,257.65v4.17c0,2.15-1.32,3.25-3.15,3.25s-3.23-1.06-3.23-3.25v-4.17h1.36v4.17c0,1.31,.75,2.01,1.88,2.01s1.78-.76,1.78-2.01v-4.17h1.36Z"/><path class="f" d="M79.22,257.64v6.01h3.74v1.27h-5.12v-7.28h1.37Z"/><path class="f" d="M91.6,261.22c.03,1.84-1.09,3.7-3.64,3.7h-2.86v-7.28h2.86c2.5,0,3.61,1.78,3.64,3.58Zm-5.14,2.38h1.5c1.65,0,2.31-1.21,2.28-2.39-.03-1.13-.7-2.27-2.28-2.27h-1.5v4.66Z"/><path class="f" d="M98.94,263.55h-3.81l-.62,1.37h-1.49l3.27-7.28h1.5l3.27,7.28h-1.5l-.61-1.37Zm-1.9-4.38l-1.35,3.1h2.7l-1.35-3.1Z"/><path class="f" d="M109.57,261.22c.03,1.84-1.09,3.7-3.64,3.7h-2.86v-7.28h2.86c2.5,0,3.61,1.78,3.64,3.58Zm-5.14,2.38h1.5c1.65,0,2.31-1.21,2.28-2.39-.03-1.13-.7-2.27-2.28-2.27h-1.5v4.66Z"/><path class="f" d="M117.17,264.92h-5.45v-7.28h5.45v1.33h-4.09v1.67h3.94v1.28h-3.94v1.64h4.09v1.35Z"/><path class="f" d="M129.27,261.22c.03,1.84-1.09,3.7-3.64,3.7h-2.86v-7.28h2.86c2.5,0,3.61,1.78,3.64,3.58Zm-5.14,2.38h1.5c1.65,0,2.31-1.21,2.28-2.39-.03-1.13-.7-2.27-2.28-2.27h-1.5v4.66Z"/><path class="f" d="M136.87,264.92h-5.45v-7.28h5.45v1.33h-4.09v1.67h3.94v1.28h-3.94v1.64h4.09v1.35Z"/><path class="f" d="M142.57,264.92v-7.28h1.36v7.28h-1.36Z"/><path class="f" d="M151.28,257.63h1.37v7.29h-.85l-3.83-4.91v4.91h-1.37v-7.28h1.11l3.57,4.51v-4.52Z"/><path class="f" d="M155.17,264.92v-7.27h5.23v1.32h-3.86v1.99h3.65v1.27h-3.65v2.69h-1.37Z"/><path class="f" d="M169.99,261.32c-.02,1.88-1.18,3.76-3.73,3.76s-3.74-1.84-3.74-3.75,1.23-3.84,3.74-3.84,3.75,1.92,3.73,3.83Zm-6.12,.03c.03,1.2,.68,2.47,2.39,2.47s2.36-1.29,2.38-2.48c.02-1.23-.67-2.6-2.38-2.6s-2.42,1.38-2.39,2.61Z"/><path class="f" d="M178.72,264.92h-1.63l-2.12-2.43h-1.32v2.43h-1.37v-7.29c1.15,0,2.31,.01,3.46,.01,1.72,.01,2.62,1.15,2.62,2.41,0,1-.46,2.01-1.84,2.29l2.2,2.48v.09Zm-5.07-6v2.33h2.09c.87,0,1.25-.58,1.25-1.16s-.39-1.16-1.25-1.16h-2.09Z"/><path class="f" d="M186.89,259.65l-2.37,3.16h-.27l-2.32-3.17v5.29h-1.37v-7.28h1.58l2.28,3.13,2.28-3.13h1.57v7.28h-1.37v-5.28Z"/><path class="f" d="M195.99,263.55h-3.81l-.62,1.37h-1.49l3.27-7.28h1.5l3.27,7.28h-1.5l-.61-1.37Zm-.55-1.28l-1.35-3.1-1.35,3.1h2.7Zm.34-6.85h-1.5l-.77,1.41v.06h1.12l1.14-1.42v-.05Z"/><path class="f" d="M200.68,258.89h-2.31v-1.25h5.99v1.25h-2.31v6.03h-1.37v-6.03Z"/><path class="f" d="M206.47,264.92v-7.28h1.36v7.28h-1.36Z"/><path class="f" d="M216.8,264.01c-.75,.74-1.72,1.08-2.77,1.08-2.7,0-3.85-1.86-3.86-3.75-.01-1.9,1.23-3.84,3.86-3.84,.99,0,1.92,.37,2.67,1.11l-.91,.88c-.48-.47-1.12-.69-1.76-.69-1.76,0-2.52,1.31-2.51,2.53,.01,1.21,.71,2.46,2.51,2.46,.63,0,1.35-.26,1.83-.74l.94,.95Z"/><path class="f" d="M223.68,263.55h-3.81l-.62,1.37h-1.49l3.27-7.28h1.5l3.27,7.28h-1.5l-.61-1.37Zm-1.9-4.38l-1.35,3.1h2.7l-1.35-3.1Z"/><path class="f" d="M49.73,271.36c.04,1.62-1,3.25-3.22,3.25h-2.15v-6.35h2.15c2.15,0,3.19,1.54,3.22,3.1Zm-4.88-2.64v5.42h1.66c1.89,0,2.76-1.42,2.73-2.78-.03-1.33-.9-2.64-2.73-2.64h-1.66Z"/><path class="f" d="M54.3,271.19h3.72v.44h-3.72v2.5h4.01v.47h-4.49v-6.35h4.38v.46h-3.9v2.47Z"/><path class="f" d="M68.35,272.41v2.2h-.49v-6.35h2.79c2.76,0,2.76,4.16,0,4.16h-2.3Zm0-3.7v3.26h2.3c2.11,0,2.11-3.26,0-3.26h-2.3Z"/><path class="f" d="M81.85,274.61h-.64l-2.2-2.41h-1.73v2.41h-.49v-6.35h2.8c1.38,0,2.08,.99,2.09,1.98,0,1.03-.67,1.94-2.06,1.94l2.24,2.43Zm-4.57-2.87h2.25c1.11,0,1.6-.63,1.61-1.52,0-.74-.5-1.52-1.55-1.52h-2.3v3.03Z"/><path class="f" d="M86.14,271.19h3.72v.44h-3.72v2.5h4.01v.47h-4.49v-6.35h4.38v.46h-3.9v2.47Z"/><path class="f" d="M98.53,269.48c-.46-.74-1.21-.85-1.92-.86-.74,0-1.92,.27-1.92,1.29,0,.81,.87,1,1.94,1.2,1.23,.24,2.5,.45,2.5,1.82,0,1.43-1.45,1.78-2.51,1.78-.99,0-2.11-.41-2.6-1.38l.44-.22c.39,.77,1.39,1.15,2.17,1.15s2.02-.22,2.02-1.34c0-.95-1.04-1.16-2.09-1.36-1.16-.23-2.35-.46-2.35-1.63-.03-1.34,1.37-1.76,2.41-1.76,.91,0,1.7,.15,2.32,1.08l-.4,.24Z"/><path class="f" d="M103.14,274.61v-6.35h.48v6.35h-.48Z"/><path class="f" d="M113.34,271.36c.04,1.62-1,3.25-3.22,3.25h-2.15v-6.35h2.15c2.15,0,3.19,1.54,3.22,3.1Zm-4.88-2.64v5.42h1.66c1.89,0,2.76-1.42,2.73-2.78-.03-1.33-.9-2.64-2.73-2.64h-1.66Z"/><path class="f" d="M117.91,271.19h3.72v.44h-3.72v2.5h4.01v.47h-4.49v-6.35h4.38v.46h-3.9v2.47Z"/><path class="f" d="M126.39,268.25l4.27,5.26v-5.26h.48v6.35h-.19l-4.28-5.25v5.25h-.49v-6.35h.21Z"/><path class="f" d="M137.36,268.7h-2.3v-.44h5.08v.44h-2.3v5.91h-.49v-5.91Z"/><path class="f" d="M144.54,271.19h3.72v.44h-3.72v2.5h4.01v.47h-4.49v-6.35h4.38v.46h-3.9v2.47Z"/><path class="f" d="M158.58,272.41v2.2h-.49v-6.35h2.79c2.76,0,2.76,4.16,0,4.16h-2.3Zm0-3.7v3.26h2.3c2.11,0,2.11-3.26,0-3.26h-2.3Z"/><path class="f" d="M172.09,274.61h-.64l-2.2-2.41h-1.73v2.41h-.49v-6.35h2.8c1.38,0,2.08,.99,2.09,1.98,0,1.03-.67,1.94-2.06,1.94l2.24,2.43Zm-4.57-2.87h2.25c1.11,0,1.6-.63,1.61-1.52,0-.74-.5-1.52-1.55-1.52h-2.31v3.03Z"/><path class="f" d="M180.95,268.25v3.95c0,3.32-4.86,3.33-4.86,0v-3.95h.48v3.95c0,2.73,3.9,2.72,3.9,0v-3.95h.48Z"/><path class="f" d="M190.59,271.36c.04,1.62-1,3.25-3.22,3.25h-2.15v-6.35h2.15c2.15,0,3.19,1.54,3.22,3.1Zm-4.88-2.64v5.42h1.66c1.89,0,2.76-1.42,2.73-2.78-.03-1.33-.9-2.64-2.73-2.64h-1.66Z"/><path class="f" d="M195.17,271.19h3.72v.44h-3.72v2.5h4.01v.47h-4.49v-6.35h4.38v.46h-3.9v2.47Z"/><path class="f" d="M203.65,268.25l4.27,5.26v-5.26h.48v6.35h-.19l-4.28-5.25v5.25h-.49v-6.35h.21Z"/><path class="f" d="M214.61,268.7h-2.3v-.44h5.08v.44h-2.3v5.91h-.49v-5.91Z"/><path class="f" d="M221.79,271.19h3.72v.44h-3.72v2.5h4.01v.47h-4.49v-6.35h4.38v.46h-3.9v2.47Z"/></g></g></g><g><g><path class="h" d="M69.92,321.61c0,5.3-4.08,10.15-13.02,10.15-4.4,0-8.93-1.21-11.99-3.37l2.83-5.57c2.38,1.8,5.7,2.83,8.98,2.83,3.64,0,5.88-1.48,5.88-4.04,0-2.38-1.75-3.86-5.88-3.86h-3.32v-4.8l6.46-7.32h-13.38v-5.84h22v4.71l-7.09,8.08c5.66,.9,8.53,4.4,8.53,9.02Z"/><path class="h" d="M95.36,321.34c0,5.57-4.08,10.41-13.06,10.41-4.35,0-8.93-1.21-11.99-3.37l2.87-5.57c2.38,1.8,5.66,2.83,8.93,2.83,3.64,0,5.88-1.53,5.88-4.08s-1.62-4.08-7.32-4.08h-8.04l1.62-17.69h19.17v5.84h-14.89l1.63,1.82-.34,4.15h2.56c9.29,0,12.97,4.17,12.97,9.74Z"/></g><g><path class="h" d="M123.99,325.02h-16.9l1.35,2.31-1.83,4.43h-7.45l14.01-31.42h7.18l14.05,31.42h-7.63l-2.78-6.73Zm-2.29-5.52l-4.98-12.03-4.98,12.03h9.97Z"/><path class="h" d="M165.87,300.34v31.42h-5.97l-15.67-19.08v19.08h-7.18v-31.42h6.02l15.62,19.08v-19.08h7.18Z"/><path class="h" d="M168.52,315.51c0-9.34,7.27-16.25,17.19-16.25s17.19,6.87,17.19,16.25-7.32,16.25-17.19,16.25-17.19-6.91-17.19-16.25Zm27.02,0c0-5.97-4.22-10.06-9.83-10.06s-9.83,4.08-9.83,10.06,4.22,10.06,9.83,10.06,9.83-4.08,9.83-10.06Z"/><path class="h" d="M204.59,328.12l2.47-5.48c2.65,1.93,6.6,3.28,10.37,3.28,4.31,0,6.06-1.44,6.06-3.37,0-5.88-18.27-1.84-18.27-13.51,0-5.34,4.31-9.79,13.24-9.79,3.95,0,7.99,.94,10.91,2.78l-2.24,5.52c-2.92-1.66-5.93-2.47-8.71-2.47-4.31,0-5.97,1.62-5.97,3.59,0,5.79,18.27,1.8,18.27,13.33,0,5.25-4.35,9.74-13.33,9.74-4.98,0-10.01-1.48-12.79-3.64Z"/></g></g><path class="h" d="M230.71,287.52H44.91c-.26,0-.48-.21-.48-.48s.21-.48,.48-.48H230.71c.26,0,.48,.21,.48,.48s-.21,.48-.48,.48Z"/></g></g></g></g></svg>